# xmcd
#
# Track frame offsets: 
#        150
#        22067
#        42329
#        60254
#        74482
#        87774
#        101787
#        118746
#        139540
#        151839
#        177782
#
# Disc length: 2558 seconds
#
# Revision: 0
# Processed by: cddbd v1.5.2PL0 Copyright (c) Steve Scherf et al.
# Submitted via: ExactAudioCopy v0.95b4
#
DISCID=8d09fc0b
DTITLE=Charlotte Gainsbourg - 5:55
DYEAR=2006
DGENRE=Chanson/Pop
TTITLE0=5:55
TTITLE1=AF607105
TTITLE2=THE OPERATION
TTITLE3=TEL QUE TU ES
TTITLE4=THE SONGS THAT WE SING
TTITLE5=BEAUTY MARK
TTITLE6=LITTLE MONSTERS
TTITLE7=JAMAIS
TTITLE8=NIGHT-TIME INTERMISSION
TTITLE9=EVERYTHING I CANNOT SEE
TTITLE10=MORNING SONG
EXTD=
EXTT0=
EXTT1=
EXTT2=
EXTT3=
EXTT4=
EXTT5=
EXTT6=
EXTT7=
EXTT8=
EXTT9=
EXTT10=
PLAYORDER=
